# AST/ASF file generated using VICON BodyLanguage
# -----------------------------------------------
:version 1.10
:name VICON
:units
  mass 1.0
  length 0.45
  angle deg
:documentation
   .ast/.asf automatically generated from VICON data using
   VICON BodyBuilder and BodyLanguage model FoxedUp or BRILLIANT.MOD
:root
   order TX TY TZ RX RY RZ
   axis XYZ
   position 0 0 0  
   orientation 0 0 0 
:bonedata
  begin
     id 1 
     name lhipjoint
     direction 0.645893 -0.654526 0.392961 
     length 2.38111 
     axis 0 0 0  XYZ
  end
  begin
     id 2 
     name lfemur
     direction 0.34202 -0.939693 0  
     length 6.6822  
     axis 0 0 20  XYZ
    dof rx ry rz
    limits (-160.0 20.0)
           (-70.0 70.0)
           (-60.0 70.0)
  end
  begin
     id 3 
     name ltibia
     direction 0.34202 -0.939693 0   
     length 6.93904   
     axis 0 0 20   XYZ
    dof rx
    limits (-10.0 170.0)
  end
  begin
     id 4 
     name lfoot
     direction 0.0694967 -0.190941 0.979138   
     length 2.13616   
     axis -90 7.62852e-016 20   XYZ
    dof rx rz
    limits (-45.0 90.0)
           (-70.0 20.0)
  end
  begin
     id 5 
     name ltoes
     direction 1.535e-011 -4.2202e-011 1   
     length 1.07536   
     axis -90 7.62852e-016 20   XYZ
    dof rx
    limits (-90.0 20.0)
  end
  begin
     id 6 
     name rhipjoint
     direction -0.700219 -0.612087 0.367481   
     length 2.54621  
     axis 0 0 0  XYZ 
  end
  begin
     id 7 
     name rfemur
     direction -0.34202 -0.939693 0   
     length 6.55353   
     axis 0 0 -20   XYZ
    dof rx ry rz
    limits (-160.0 20.0)
           (-70.0 70.0)
           (-70.0 60.0)
  end
  begin
     id 8 
     name rtibia
     direction -0.34202 -0.939693 0   
     length 6.8736   
     axis 0 0 -20   XYZ
    dof rx
    limits (-10.0 170.0)
 end
 begin
     id 9 
     name rfoot
     direction -0.0679995 -0.186827 0.980037   
     length 2.1218  
     axis -90 -7.62852e-016 -20   XYZ
    dof rx rz
    limits (-45.0 90.0)
           (-20.0 70.0)
  end
  begin
     id 10 
     name rtoes
     direction -1.53589e-011 -4.21772e-011 1   
     length 1.06864   
     axis -90 -7.62852e-016 -20   XYZ
    dof rx
    limits (-90.0 20.0)
  end
  begin
     id 11 
     name lowerback
     direction -0.0416607 0.996347 -0.0745409   
     length 2.12205   
     axis 0 0 0   XYZ
    dof rx ry rz
    limits (-20.0 45.0)
           (-30.0 30.0)
           (-30.0 30.0)
  end
  begin
     id 12 
     name upperback
     direction -0.000153993 0.999276 -0.0380568   
     length 2.12759   
     axis 0 0 0   XYZ
    dof rx ry rz
    limits (-20.0 45.0)
           (-30.0 30.0)
           (-30.0 30.0)
  end
  begin
     id 13 
     name thorax
     direction 0.0187671 0.999821 -0.00241421   
     length 2.13704   
     axis 0 0 0   XYZ
    dof rx ry rz
    limits (-20.0 45.0)
           (-30.0 30.0)
           (-30.0 30.0)
  end
  begin
     id 14 
     name lowerneck
     direction 0.0268157 0.964865 0.261374   
     length 1.65253   
     axis 0 0 0   XYZ
    dof rx ry rz
    limits (-20.0 45.0)
           (-30.0 30.0)
           (-30.0 30.0)
  end
  begin
     id 15 
     name upperneck
     direction 0.00263774 0.939908 -0.341418   
     length 1.72375   
     axis 0 0 0   XYZ
    dof rx ry rz
    limits (-20.0 45.0)
           (-30.0 30.0)
           (-30.0 30.0)
  end
  begin
     id 16
     name head
     direction -0.00526001 0.989001 -0.147818  
     length 1.74878  
     axis 0 0 0   XYZ
    dof rx ry rz
    limits (-20.0 45.0)
           (-30.0 30.0)
           (-30.0 30.0)
  end
  begin
     id 17 
     name lclavicle
     direction 0.881214 0.461162 -0.103884  
     length 3.25108  
     axis 0 0 0   XYZ
    dof ry rz
    limits (-20.0 10.0)
           (0.0 20.0)
  end
  begin
     id 18 
     name lhumerus
     direction 1 -4.4899e-011 3.38092e-027   
     length 4.87408   
     axis 180 -30 -90   XYZ
    dof rx ry rz
    limits (-60.0 90.0)
           (-90.0 90.0)
           (-90.0 90.0)
  end
  begin
     id 19
     name lradius
     direction 1 -4.48931e-011 9.96288e-027   
     length 2.76729   
     axis 180 -30 -90   XYZ
    dof rx
    limits (-10.0 170.0)
  end
  begin
     id 20
     name lwrist
     direction 1 -4.4896e-011 1.50617e-026   
     length 1.38364   
     axis -9.31234e-015 90 90   XYZ
    dof ry
    limits (-180.0 0.0)
 end
  begin
     id 21 
     name lhand
     direction 1 -4.49038e-011 3.01286e-026   
     length 0.98922   
     axis -1.92217e-014 90 90   XYZ
    dof rx rz
    limits (-90.0 90.0)
           (-45.0 45.0)
  end
  begin
     id 22 
     name lfingers
     direction 1 -4.49051e-011 6.02588e-026   
     length 0.797535   
     axis -3.84436e-014 90 90   XYZ
    dof rx
    limits (0.0 90.0)
  end
  begin
     id 23
     name lthumb
     direction 0.707107 -6.34901e-011 0.707107   
     length 1.14511   
     axis -90 45 2.19363e-014   XYZ
    dof rx rz
    limits (-45.0 45.0)
           (-45.0 45.0)
  end
  begin
     id 24 
     name rclavicle
     direction -0.893894 0.441652 -0.0767889   
     length 3.29361  
     axis 0 0 0   XYZ 
    dof ry rz
    limits (-10.0 20.0)
           (-20.0 0.0)
  end
  begin
     id 25 
     name rhumerus
     direction -1 -4.48945e-011 8.0491e-028  
     length 4.71404   
     axis 180 30 90   XYZ
    dof rx ry rz
    limits (-90.0 60.0)
           (-90.0 90.0)
           (-90.0 90.0)
  end
  begin
     id 26 
     name rradius
     direction -1 -4.48986e-011 9.27795e-027   
     length 2.83468   
     axis 180 30 90   XYZ
    dof rx
    limits (-10.0 170.0)
  end
  begin
     id 27 
     name rwrist
     direction -1 -4.49029e-011 1.5064e-026   
     length 1.41734   
     axis -9.31234e-015 -90 -90   XYZ
    dof ry
    limits (-180.0 0.0)
  end
  begin
     id 28
     name rhand
     direction -1 -4.48857e-011 3.01165e-026   
     length 0.868195   
     axis -1.92217e-014 -90 -90   XYZ
    dof rx rz
    limits (-90.0 90.0)
           (-45.0 45.0)
  end
  begin
     id 29
     name rfingers
     direction -1 -4.49048e-011 6.02585e-026   
     length 0.699961   
     axis -3.84436e-014 -90 -90   XYZ
    dof rx
    limits (0.0 90.0)
  end
  begin
     id 30
     name rthumb
     direction -0.707107 -6.34854e-011 0.707107   
     length 1.00501   
     axis -90 -45 -2.19363e-014   XYZ
    dof rx rz
    limits (-45.0 45.0)
           (-45.0 45.0)
  end
:hierarchy
  begin
    root lhipjoint rhipjoint lowerback
    lhipjoint lfemur
    lfemur ltibia
    ltibia lfoot
    lfoot ltoes
    rhipjoint rfemur
    rfemur rtibia
    rtibia rfoot
    rfoot rtoes
    lowerback upperback
    upperback thorax
    thorax lowerneck lclavicle rclavicle
    lowerneck upperneck
    upperneck head
    lclavicle lhumerus
    lhumerus lradius
    lradius lwrist
    lwrist lhand lthumb
    lhand lfingers
    rclavicle rhumerus
    rhumerus rradius
    rradius rwrist
    rwrist rhand rthumb
    rhand rfingers
  end

#!OML:ASF H:\ManfredObstacles\Project 1\Capture day 2\Session 1\male.ASF
:FULLY-SPECIFIED
:DEGREES
49
root 1.23204 15.8053 25.9634 -177.287 -8.27749 -183.263
lowerback 1.50717 -3.73332 -7.28791
upperback 3.39321 -5.12572 -0.258042
thorax 3.28814 -2.82742 3.69437
lowerneck -33.3374 -0.254327 4.61491
upperneck 43.25 2.22588 -3.23261
head 26.1684 2.283 -1.62249
rclavicle -3.00662e-014 1.94809e-014
rhumerus -55.4301 -7.85557 -67.3964
rradius 44.252
rwrist 15.6715
rhand -9.51889 -8.85208
rfingers 7.12502
rthumb 16.4469 -38.1749
lclavicle -3.00662e-014 1.94809e-014
lhumerus -33.1201 -30.9428 94.5565
lradius 71.1144
lwrist -23.3645
lhand -12.3545 3.91573
lfingers 7.12502
lthumb 13.7154 33.4437
rfemur -37.7451 7.96981 7.63168
rtibia 21.8974
rfoot 24.3743 -8.60424
rtoes -18.0434
lfemur 6.47621 -6.9555 -24.652
ltibia 22.9904
lfoot 2.64936 16.6287
ltoes -9.2017
50
root 1.26522 15.7883 25.7876 -177.15 -8.85973 -183.406
lowerback 1.47833 -3.88829 -7.44671
upperback 3.43874 -5.33149 -0.255453
thorax 3.3934 -2.94033 3.77142
lowerneck -33.3848 -0.144765 4.78853
upperneck 43.1789 2.35697 -3.39735
head 26.1382 2.32882 -1.71721
rclavicle -1.77415e-014 -2.98177e-015
rhumerus -55.2935 -7.78168 -67.4917
rradius 44.1563
rwrist 15.7438
rhand -9.42574 -8.74548
rfingers 7.12502
rthumb 16.5366 -38.0608
lclavicle -1.77415e-014 -2.98177e-015
lhumerus -32.6051 -30.9152 94.3879
lradius 70.0897
lwrist -23.719
lhand -12.0477 4.06221
lfingers 7.12502
lthumb 14.011 33.57
rfemur -37.5103 9.09098 6.51502
rtibia 20.6251
rfoot 24.3383 -8.32889
rtoes -19.2651
lfemur 7.17076 -7.14625 -24.5142
ltibia 22.5653
lfoot 2.68972 16.15
ltoes -9.50852
51
root 1.29973 15.7654 25.6111 -177.03 -9.45133 -183.505
lowerback 1.48067 -4.0385 -7.55678
upperback 3.46516 -5.53303 -0.252204
thorax 3.45675 -3.04748 3.82538
lowerneck -33.377 -0.0280526 4.99438
upperneck 43.0968 2.4912 -3.57628
head 26.0749 2.3808 -1.82443
rclavicle -8.72665e-014 -3.12092e-014
rhumerus -55.1641 -7.67186 -67.6611
rradius 44.1069
rwrist 15.8183
rhand -9.35789 -8.61311
rfingers 7.12502
rthumb 16.6019 -37.923
lclavicle -8.72665e-014 -3.12092e-014
lhumerus -32.1578 -30.7885 94.2242
lradius 69.0128
lwrist -24.348
lhand -11.7468 4.19851
lfingers 7.12502
lthumb 14.301 33.686
rfemur -37.2969 9.98165 5.64791
rtibia 19.7902
rfoot 24.4419 -8.03289
rtoes -20.3429
lfemur 7.73088 -7.38226 -24.3296
ltibia 22.4368
lfoot 2.68669 15.777
ltoes -9.83202
52
root 1.33612 15.736 25.4343 -176.933 -10.047 -183.548
lowerback 1.4919 -4.17734 -7.61627
upperback 3.51261 -5.72064 -0.239431
thorax 3.53173 -3.14781 3.86119
lowerneck -33.3654 0.0806943 5.18185
upperneck 42.9996 2.61076 -3.74221
head 25.9915 2.42387 -1.92452
rclavicle 4.97956e-014 1.31198e-014
rhumerus -54.9668 -7.58252 -67.8833
rradius 44.0707
rwrist 15.9065
rhand -9.31182 -8.41876
rfingers 7.12502
rthumb 16.6463 -37.7249
lclavicle 4.97956e-014 1.31198e-014
lhumerus -31.6928 -30.6184 94.0549
lradius 67.8997
lwrist -24.9361
lhand -11.4323 4.39083
lfingers 7.12502
lthumb 14.604 33.8567
rfemur -37.0494 10.6229 5.07888
rtibia 19.3664
rfoot 24.7225 -7.58644
rtoes -21.7408
lfemur 8.1269 -7.64832 -24.0821
ltibia 22.6616
lfoot 2.63653 15.5167
ltoes -10.116
53
root 1.37468 15.6999 25.2581 -176.863 -10.641 -183.531
lowerback 1.52351 -4.30313 -7.63204
upperback 3.5557 -5.89246 -0.215441
thorax 3.58553 -3.23815 3.88706
lowerneck -33.2197 0.164663 5.3499
upperneck 42.8747 2.71055 -3.90414
head 25.8169 2.45764 -2.02138
rclavicle -8.13526e-014 1.80894e-014
rhumerus -54.7503 -7.49752 -68.149
rradius 44.0444
rwrist 16.0207
rhand -9.29876 -8.20925
rfingers 7.12502
rthumb 16.6588 -37.5144
lclavicle -8.13526e-014 1.80894e-014
lhumerus -31.2763 -30.3969 93.9139
lradius 66.7795
lwrist -25.4242
lhand -11.0518 4.64078
lfingers 7.12502
lthumb 14.9706 34.0797
rfemur -36.7414 11.0202 4.80766
rtibia 19.331
rfoot 24.9269 -6.95849
rtoes -23.6329
lfemur 8.34546 -7.92825 -23.7658
ltibia 23.2675
lfoot 2.5235 15.3761
ltoes -10.4002
54
root 1.41585 15.6575 25.0832 -176.816 -11.2116 -183.453
lowerback 1.58367 -4.40815 -7.60881
upperback 3.59698 -6.03916 -0.17704
thorax 3.61558 -3.3142 3.91019
lowerneck -32.9832 0.115985 5.25277
upperneck 42.824 2.7219 -3.8962
head 25.6548 2.44639 -1.9885
rclavicle -3.42904e-015 1.59028e-015
rhumerus -54.5126 -7.42141 -68.4535
rradius 44.0591
rwrist 16.122
rhand -9.29449 -8.04583
rfingers 7.12502
rthumb 16.6629 -37.3506
lclavicle -3.42904e-015 1.59028e-015
lhumerus -30.8927 -30.1291 93.7994
lradius 65.6578
lwrist -25.769
lhand -10.5965 4.94792
lfingers 7.12502
lthumb 15.4092 34.3536
rfemur -36.3882 11.2353 4.79434
rtibia 19.67
rfoot 24.7064 -6.11768
rtoes -24.8323
lfemur 8.37586 -8.17971 -23.373
ltibia 24.2493
lfoot 2.35695 15.3304
ltoes -10.6467
55
root 1.45972 15.6099 24.9107 -176.787 -11.745 -183.315
lowerback 1.68175 -4.48365 -7.53623
upperback 3.63528 -6.14986 -0.134759
thorax 3.6113 -3.36976 3.91578
lowerneck -32.6732 -0.041876 4.95261
upperneck 42.8445 2.64805 -3.74061
head 25.5131 2.39967 -1.85182
rclavicle 3.8763e-014 -1.19271e-014
rhumerus -54.2382 -7.40449 -68.7867
rradius 44.0664
rwrist 16.2529
rhand -9.30185 -7.87415
rfingers 7.12502
rthumb 16.6559 -37.1795
lclavicle 3.8763e-014 -1.19271e-014
lhumerus -30.5437 -29.8611 93.7096
lradius 64.5556
lwrist -25.794
lhand -10.0726 5.35621
lfingers 7.12502
lthumb 15.9137 34.7224
rfemur -36.0276 11.3194 4.99675
rtibia 20.3589
rfoot 23.8487 -5.26447
rtoes -24.628
lfemur 8.22976 -8.38561 -22.9042
ltibia 25.563
lfoot 2.17209 15.3531
ltoes -10.8349
56
root 1.50618 15.5589 24.7417 -176.775 -12.2287 -183.126
lowerback 1.84071 -4.53313 -7.42939
upperback 3.65316 -6.23071 -0.0853694
thorax 3.54425 -3.40677 3.91847
lowerneck -32.3046 -0.273725 4.49224
upperneck 42.9195 2.52703 -3.4723
head 25.3902 2.33127 -1.62988
rclavicle -4.65156e-014 -1.96797e-014
rhumerus -53.9395 -7.40916 -69.1549
rradius 44.0783
rwrist 16.3832
rhand -9.32002 -7.76094
rfingers 7.12502
rthumb 16.6384 -37.0678
lclavicle -4.65156e-014 -1.96797e-014
lhumerus -30.245 -29.534 93.6366
lradius 63.4039
lwrist -25.8764
lhand -9.59383 5.75487
lfingers 7.12502
lthumb 16.3747 35.0836
rfemur -35.7173 11.2912 5.38206
rtibia 21.3583
rfoot 22.3156 -4.62175
rtoes -22.8542
lfemur 7.92888 -8.51216 -22.3651
ltibia 27.1407
lfoot 2.03295 15.3858
ltoes -10.9712
57
root 1.5548 15.5075 24.5766 -176.794 -12.6555 -182.892
lowerback 2.0776 -4.55024 -7.27064
upperback 3.67925 -6.27542 -0.0439311
thorax 3.43017 -3.42372 3.89329
lowerneck -31.9467 -0.532921 3.94482
upperneck 43.0313 2.37868 -3.111
head 25.3054 2.25412 -1.34429
rclavicle -6.07784e-014 -2.16675e-014
rhumerus -53.5673 -7.47831 -69.5736
rradius 44.0783
rwrist 16.5427
rhand -9.34069 -7.69744
rfingers 7.12502
rthumb 16.6185 -37.006
lclavicle -6.07784e-014 -2.16675e-014
lhumerus -29.941 -29.1709 93.5491
lradius 62.2281
lwrist -25.8771
lhand -9.15278 6.21154
lfingers 7.12502
lthumb 16.7994 35.5048
rfemur -35.4863 11.1639 5.93019
rtibia 22.595
rfoot 20.072 -4.23417
rtoes -20.9114
lfemur 7.51808 -8.54905 -21.7689
ltibia 28.9102
lfoot 1.98894 15.3936
ltoes -10.9947
58
root 1.60469 15.4582 24.4161 -176.846 -13.0217 -182.618
lowerback 2.36963 -4.53409 -7.06939
upperback 3.7439 -6.28134 -0.00379258
thorax 3.31536 -3.42283 3.84812
lowerneck -31.8436 -0.714581 3.53442
upperneck 43.1113 2.27051 -2.85656
head 25.3133 2.18914 -1.14196
rclavicle -1.02076e-013 9.54166e-015
rhumerus -53.0526 -7.61659 -70.0436
rradius 44.032
rwrist 16.7092
rhand -9.38283 -7.67764
rfingers 7.12502
rthumb 16.5779 -36.9896
lclavicle -1.02076e-013 9.54166e-015
lhumerus -29.5648 -28.7844 93.4344
lradius 61.026
lwrist -25.7874
lhand -8.74145 6.72916
lfingers 7.12502
lthumb 17.1953 35.9883
rfemur -35.3443 10.9408 6.62723
rtibia 23.9706
rfoot 17.6135 -3.98406
rtoes -19.3871
lfemur 7.02722 -8.50324 -21.133
ltibia 30.8228
lfoot 2.11339 15.3436
ltoes -10.8327
59
root 1.65504 15.4141 24.2608 -176.939 -13.3229 -182.294
lowerback 2.72345 -4.48417 -6.81673
upperback 3.84467 -6.24785 0.0370933
thorax 3.19299 -3.40332 3.78046
lowerneck -31.9223 -0.795799 3.31643
upperneck 43.1177 2.21462 -2.73529
head 25.3386 2.14442 -1.04506
rclavicle -5.61567e-015 -2.8625e-014
rhumerus -52.4014 -7.80779 -70.5703
rradius 43.9396
rwrist 16.8907
rhand -9.45718 -7.68858
rfingers 7.12502
rthumb 16.5063 -37.0065
lclavicle -5.61567e-015 -2.8625e-014
lhumerus -29.11 -28.3271 93.28
lradius 59.8042
lwrist -25.756
lhand -8.2806 7.27864
lfingers 7.12502
lthumb 17.6388 36.4985
rfemur -35.2808 10.6499 7.45818
rtibia 25.386
rfoot 15.3123 -3.85551
rtoes -18.2368
lfemur 6.46648 -8.38104 -20.461
ltibia 32.8562
lfoot 2.4346 15.2217
ltoes -10.468
60
root 1.70519 15.3759 24.1112 -177.074 -13.5562 -181.924
lowerback 3.131 -4.40256 -6.51554
upperback 3.98515 -6.17678 0.081296
thorax 3.07277 -3.36678 3.69279
lowerneck -32.1447 -0.776581 3.28505
upperneck 43.0355 2.2145 -2.74789
head 25.3465 2.11938 -1.05196
rclavicle 3.41413e-014 -7.55382e-015
rhumerus -51.5997 -8.03937 -71.1508
rradius 43.7802
rwrist 17.0983
rhand -9.55668 -7.7139
rfingers 7.12502
rthumb 16.4105 -37.0397
lclavicle 3.41413e-014 -7.55382e-015
lhumerus -28.5799 -27.8094 93.0995
lradius 58.5455
lwrist -25.6869
lhand -7.84097 7.83962
lfingers 7.12502
lthumb 18.0619 37.021
rfemur -35.2609 10.35 8.38899
rtibia 26.7632
rfoot 13.3084 -3.78502
rtoes -17.4167
lfemur 5.82927 -8.18013 -19.7639
ltibia 35.0165
lfoot 2.97466 15.0328
ltoes -9.83771
61
root 1.75495 15.3427 23.9681 -177.242 -13.7175 -181.516
lowerback 3.58019 -4.28946 -6.18561
upperback 4.15129 -6.06663 0.126818
thorax 2.94933 -3.31207 3.59274
lowerneck -32.3826 -0.663347 3.45488
upperneck 42.8183 2.25364 -2.91041
head 25.2333 2.10762 -1.17926
rclavicle -8.17999e-014 -1.98785e-015
rhumerus -50.6763 -8.27684 -71.7889
rradius 43.5475
rwrist 17.3494
rhand -9.67965 -7.7659
rfingers 7.12502
rthumb 16.2921 -37.1015
lclavicle -8.17999e-014 -1.98785e-015
lhumerus -28.0179 -27.2114 92.907
lradius 57.2405
lwrist -25.6535
lhand -7.43262 8.38384
lfingers 7.12502
lthumb 18.4547 37.5284
rfemur -35.2536 10.0963 9.37306
rtibia 28.0468
rfoot 11.5694 -3.77916
rtoes -17.1888
lfemur 5.09704 -7.89821 -19.0562
ltibia 37.3283
lfoot 3.69635 14.7962
ltoes -8.9783
62
root 1.80512 15.3133 23.8313 -177.438 -13.8317 -181.087
lowerback 4.06123 -4.15304 -5.85717
upperback 4.35641 -5.92907 0.176583
thorax 2.84776 -3.24752 3.49712
lowerneck -32.6056 -0.537016 3.62937
upperneck 42.556 2.29105 -3.06981
head 25.069 2.09058 -1.30619
rclavicle -7.04692e-014 2.38542e-015
rhumerus -49.6178 -8.49735 -72.493
rradius 43.2753
rwrist 17.611
rhand -9.80925 -7.85538
rfingers 7.12502
rthumb 16.1673 -37.2011
lclavicle -7.04692e-014 2.38542e-015
lhumerus -27.3898 -26.5155 92.6814
lradius 55.8622
lwrist -25.7686
lhand -7.08301 8.84465
lfingers 7.12502
lthumb 18.791 37.957
rfemur -35.2149 9.9225 10.3653
rtibia 29.2087
rfoot 10.0304 -3.8424
rtoes -16.8356
lfemur 4.25443 -7.53822 -18.3409
ltibia 39.8091
lfoot 4.53936 14.5306
ltoes -7.96414
